<svg xmlns="http://www.w3.org/2000/svg" version="1.1" width="400" height="150"><path d="M184.4 61.2L184.4 106.8 204 106.8 223.6 106.8 223.6 79.4C223.6 56.1 223.5 51.9 223 51.4 222.6 50.9 220.7 50.8 213 50.8 201.1 50.8 202 50.2 202 57.9L202 63.4 205.5 63.5C207.4 63.6 209.1 63.8 209.1 64 209.2 64.2 209.6 64.4 210 64.4 211.1 64.4 211.2 91.6 210.2 92.6 209.8 93.1 208.3 93.2 203.4 93.2L197.2 93.2 197.2 61.2 197.2 29.2 209.8 29.2C225.1 29.2 223.6 30 223.6 21.8L223.6 15.6 204 15.6 184.4 15.6 184.4 61.2M229.2 61.2L229.2 106.8 235.2 106.8 241.2 106.8 241.2 86.2C241.2 68.8 241.3 65.5 241.8 65 242.2 64.5 243.7 64.4 248.6 64.4L254.8 64.4 254.8 85.6 254.8 106.8 261.2 106.8 267.6 106.8 267.6 61.2 267.6 15.6 248.4 15.6 229.2 15.6 229.2 61.2M274 61.2L274 106.8 280 106.8 286 106.8 286 68.6C286 36 286.1 30.3 286.6 29.8 287.4 28.9 297.4 28.9 298.2 29.8 298.7 30.3 298.8 36 298.8 68.6L298.8 106.8 305.2 106.8 311.6 106.8 311.6 74.4 311.6 42 318.4 42 325.2 42 325.2 74.4 325.2 106.8 331.2 106.8 337.2 106.8 337.2 67.6 337.2 28.4 325 28.4C310.2 28.4 311.6 29.1 311.6 21.4L311.6 15.6 292.8 15.6 274 15.6 274 61.2M343.6 61.2L343.6 106.8 362.8 106.8 382 106.8 382 100 382 93.2 369.2 93.2 356.4 93.2 356.4 78.4C356.4 70.3 356.5 63.6 356.6 63.6 357.1 63.6 358 64.8 358 65.4 358 65.7 358.2 66 358.4 66 358.6 66 358.8 66.3 358.8 66.6 358.8 67 359.3 67.8 360 68.4 360.7 69 361.2 69.8 361.2 70.2 361.2 71.1 363.3 71 364 70 364.3 69.6 364.9 69.2 365.3 69.2 365.7 69.2 366 69 366 68.8 366 68.6 366.3 68.4 366.6 68.4 367 68.4 367.8 67.9 368.4 67.2 369 66.5 369.8 66 370.1 66 370.4 66 370.9 65.6 371.2 65.2 371.5 64.8 372.1 64.4 372.4 64.4 372.7 64.4 373.3 64 373.6 63.6 373.9 63.2 374.5 62.8 374.8 62.8 375.1 62.8 375.7 62.4 376 62 376.3 61.6 376.9 61.2 377.2 61.2 377.5 61.2 378.1 60.8 378.4 60.4 378.7 60 379.3 59.6 379.6 59.6 379.9 59.6 380.5 59.2 380.8 58.8 381.1 58.4 381.7 58 382.1 58 383.2 58 383.1 55.2 382 54.4 381.6 54.1 381.2 53.5 381.2 53.2 381.2 52.9 380.8 52.3 380.4 52 380 51.7 379.6 51.1 379.6 50.8 379.6 50.5 379.2 49.9 378.8 49.6 378.4 49.3 378 48.7 378 48.4 378 48.1 377.6 47.5 377.2 47.2 376.8 46.9 376.4 46.3 376.4 45.9 376.4 45.3 376.1 45.2 374.8 45.2 373.9 45.2 373.2 45.4 373.2 45.6 373.2 45.8 372.9 46 372.6 46 372.2 46 371.4 46.5 370.8 47.2 370.2 47.9 369.4 48.4 369.1 48.4 368.8 48.4 368.3 48.8 368 49.2 367.7 49.6 367.1 50 366.8 50 366.5 50 365.9 50.4 365.6 50.8 365.3 51.2 364.7 51.6 364.4 51.6 364.1 51.6 363.5 52 363.2 52.4 362.9 52.8 362.3 53.2 362 53.2 361.7 53.2 361.1 53.6 360.8 54 360.5 54.4 359.9 54.8 359.6 54.8 359.3 54.8 358.7 55.2 358.4 55.6 358.1 56 357.5 56.4 357.1 56.4 356.4 56.4 356 30.9 356.7 29.7 357 29.4 360.2 29.2 369.5 29.2L382 29.1 382 22.4 382 15.6 362.8 15.6 343.6 15.6 343.6 61.2M44.9 17.8C44.5 18.2 44.4 20.6 44.4 26.6L44.4 34.8 51 34.8C59.3 34.8 58.8 34.4 58.8 41.2 58.8 48 59.2 47.6 51.6 47.6 43.8 47.6 44.4 46.9 44.4 56.2L44.4 63.6 38 63.6 31.6 63.6 31.6 70.2C31.6 78.6 32.2 78 23.8 78L17.2 78 17.2 101.6 17.2 125.2 25.2 125.2 33.2 125.2 33.2 111C33.2 94 32.6 95.6 39 95.6L43.6 95.6 43.6 110C43.6 124.1 43.6 124.4 44.4 124.4 44.8 124.4 45.2 124.6 45.2 124.8 45.2 125.1 47.7 125.2 52 125.2L58.8 125.2 58.8 132.4 58.8 139.6 74.4 139.6 90 139.6 90 131.8C90 125.5 89.9 123.8 89.4 123.4 89 122.9 86.5 122.8 75 122.8L61.2 122.8 61.2 117.2 61.2 111.6 95.2 111.6 129.2 111.6 129.2 117.2 129.2 122.8 115.2 122.8C101.5 122.8 101.2 122.8 101.2 123.6 101.2 124 101 124.4 100.8 124.4 100.6 124.4 100.4 124.8 100.4 125.2 100.4 125.6 100.6 126 100.8 126 101 126 101.2 128 101.2 131.2 101.2 134.4 101 136.4 100.8 136.4 100.6 136.4 100.4 136.9 100.4 137.4 100.4 139.6 100.3 139.6 117 139.6L132.4 139.6 132.4 132.4 132.4 125.2 139 125.2C147.7 125.2 146.8 126.9 146.8 110.4 146.8 94.2 146.3 95.6 152.4 95.6 158.6 95.6 158 94.1 158 111L158 125.2 165.6 125.2 173.2 125.2 173.2 101.6 173.2 78 167 78C159 78 159.6 78.6 159.6 70.2L159.6 63.6 153.4 63.6C145.4 63.6 146 64.3 146 55L146 47.6 139.6 47.6 133.2 47.6 133.2 41.2 133.2 34.8 139.6 34.8 146 34.8 146 26 146 17.2 137.6 17.2 129.2 17.2 129.2 24.8 129.2 32.4 122.4 32.4 115.6 32.4 115.6 39.4C115.6 45 115.5 46.6 115 47 114.2 47.9 77 47.9 76.2 47 75.7 46.6 75.6 45 75.6 39.4L75.6 32.4 68.4 32.4 61.2 32.4 61.2 24.8 61.2 17.2 53.3 17.2C47 17.2 45.3 17.3 44.9 17.8M254.2 29.8C254.7 30.2 254.8 32.3 254.8 41L254.8 51.7 248 51.5C244.3 51.5 241.2 51.3 241.1 51.2 240.5 50.2 241.3 30 242 30 242.4 30 242.8 29.8 242.8 29.6 242.8 28.9 253.5 29.1 254.2 29.8M73.4 66.6C74.3 67.4 74.3 76.6 73.4 77.4 73 77.9 71.5 78 67 78L61.2 78 61.2 72 61.2 66 67 66C71.5 66 73 66.1 73.4 66.6M130.8 72L130.8 78 125 78C117.6 78 118 78.3 118 72 118 65.7 117.6 66 124.9 66L130.8 66 130.8 72M228.4 124.8C228.4 133.4 228.3 133.2 233.7 133.2 239.1 133.2 239.1 133.2 238.9 135.7 238.8 136.9 238.5 137.9 238.3 137.9 238.2 138 238 138.4 238 138.8 238 139.5 237.7 139.6 233.2 139.6L228.4 139.6 228.4 141.4C228.4 144.3 228.6 144.4 236 144.4 244.3 144.4 243.6 145.2 243.6 135.4L243.6 127.6 239.8 127.6C237 127.6 235.8 127.4 235.4 127 234.6 126.3 234.6 123.6 235.4 123.6 235.7 123.6 236 123.4 236.1 123.1 236.3 122.6 240.9 122.7 241.1 123.2 241.3 123.8 242.4 123.7 243 123 243.8 122.2 243.8 119.2 243 119.2 242.7 119.2 242.4 118.9 242.4 118.6 242.4 118.1 241.4 118 235.4 118L228.4 118 228.4 124.8M246 120.8C246 123.5 246 123.6 247 123.6 247.6 123.6 248 123.4 248 123.2 248 123 248.4 122.8 248.8 122.8 249.7 122.8 250.8 123.7 250.8 124.4 250.8 124.6 251 124.8 251.2 124.8 251.4 124.8 251.6 125.1 251.6 125.4 251.6 125.8 251.4 125.9 251.2 125.8 250.5 125.4 250.7 143.1 251.4 143.8 252.2 144.7 254.7 144.5 255.6 143.6 256.4 142.8 256.4 142.3 256.4 133.3 256.4 123.1 256.6 122.2 258.3 122.7 258.8 122.8 259.2 123.1 259.2 123.2 259.2 123.8 260 123.7 260.6 123 261 122.7 261.2 121.6 261.2 120.2L261.2 118 253.6 118 246 118 246 120.8M263.6 129.9C263.6 137.2 263.4 141.9 263.2 141.9 261.4 142.6 263.6 144.4 266.2 144.4L268.4 144.4 268.4 138.8 268.4 133.2 270.2 133.2C273.2 133.2 273.2 133.2 273.2 137.8 273.2 140.3 273 142 272.8 142 272.2 142 272.3 143.2 273 143.8 273.3 144.2 274.4 144.4 275.8 144.4L278 144.4 278 131.2 278 118 270.8 118 263.7 118 263.6 129.9M280.4 120.2C280.4 121.6 280.6 122.7 281 123 281.6 123.7 282.8 123.8 282.8 123.2 282.8 122.5 284.4 122.5 284.8 123.2 285 123.6 285.2 128 285.2 133.6 285.2 144.4 285.2 144.4 288 144.4 290.8 144.4 290.8 144.4 290.8 133.6 290.8 122.6 290.8 122.6 293.8 122.7L295.6 122.8 295.6 120.4 295.6 118 288 118 280.4 118 280.4 120.2M297.2 130.6C297.2 145.1 297 144.4 300.6 144.4L302.8 144.4 302.8 131.2 302.8 118 300 118 297.2 118 297.2 130.6M306 130.6C306 141.5 306.1 143.2 306.6 143.2 306.9 143.2 307.2 143.5 307.2 143.8 307.2 144.7 319.8 144.7 320.6 143.8 321.1 143.4 321.2 141 321.2 130.6L321.2 118 313.6 118 306 118 306 130.6M324.4 130.4C324.4 144.4 324.4 144.4 327.4 144.4 330 144.4 330 144.3 330 133.6 330 123.2 330 123.2 332.1 122.7 333.9 122.2 334 123.1 334 133.6 334 144.4 334 144.4 336.8 144.4 338 144.4 338.4 144.2 338.4 143.8 338.4 143.5 338.7 143.2 339 143.2 339.5 143.2 339.6 141.5 339.6 130.6L339.6 118 332 118 324.4 118 324.4 130.4M314.9 123.2C315.5 123.9 315.6 125 315.6 131.4L315.6 138.8 313.8 138.8C310.9 138.8 310.9 138.7 310.7 130.5L310.6 123.2 311.5 123.5C312 123.6 312.4 123.5 312.4 123.3 312.4 122.9 312.8 122.7 314 122.4 314.1 122.4 314.5 122.8 314.9 123.2M272.8 123.5C274.6 125 273 127.6 270.2 127.6L268.4 127.6 268.4 125.8C268.4 123 270.7 121.7 272.8 123.5M379.9 29.1C379.4 29.6 379.6 30 380.4 30 380.9 30 381.2 29.8 381.1 29.5 380.9 28.9 380.2 28.7 379.9 29.1M356.8 29.6C356.8 29.8 357.1 30 357.4 30 357.7 30 358 29.8 358 29.6 358 29.4 357.7 29.2 357.4 29.2 357.1 29.2 356.8 29.4 356.8 29.6M241.1 50.3C240.6 50.7 240.8 51.2 241.4 51.2 241.7 51.2 242 50.9 242 50.6 242 50 241.5 49.8 241.1 50.3M202 51.4C202 51.8 202.2 52 202.5 51.9 203.2 51.7 203.3 50.8 202.6 50.8 202.3 50.8 202 51.1 202 51.4M203.1 63.5C202.5 64 202.8 64.4 204 64.4 204.8 64.4 205.2 64.2 205.1 63.9 204.9 63.3 203.5 63 203.1 63.5M242.4 118.6C242.4 118.9 242.7 119.2 243 119.2 243.3 119.2 243.6 118.9 243.6 118.6 243.6 118.3 243.3 118 243 118 242.7 118 242.4 118.3 242.4 118.6M262.8 119.6C262.8 120.1 263 120.4 263.3 120.3 263.6 120.2 263.8 119.9 263.8 119.6 263.8 119.3 263.6 119 263.3 118.9 263 118.8 262.8 119.1 262.8 119.6M236.2 122.8C235.6 123.3 236.3 123.6 238.6 123.6 240 123.6 241.2 123.4 241.2 123.2 241.2 122.9 236.5 122.4 236.2 122.8M257.1 122.7C256.5 123.2 256.8 123.6 258 123.6 258.7 123.6 259.2 123.4 259.2 123.2 259.2 123 259 122.8 258.8 122.8 258.6 122.8 258.2 122.7 257.9 122.6 257.6 122.5 257.2 122.5 257.1 122.7M283.5 122.7C282.4 122.9 282.7 123.6 283.8 123.6 284.4 123.6 284.8 123.4 284.8 123.2 284.8 122.7 284.3 122.5 283.5 122.7M292 122.7C290.9 123.1 291.8 123.6 293.6 123.6 294.7 123.6 295.6 123.4 295.6 123.2 295.6 122.9 292.8 122.5 292 122.7M313.1 122.7C311.9 123 312.3 123.6 313.6 123.6 314.4 123.6 314.8 123.4 314.7 123.1 314.5 122.6 314.1 122.4 313.1 122.7M331.7 122.7C330.3 123 330.7 123.6 332.2 123.6 333.2 123.6 333.6 123.4 333.5 123.1 333.3 122.6 332.9 122.5 331.7 122.7M248 123.2C248 123.4 248.5 123.6 249 123.6 249.6 123.6 250 123.4 250 123.2 250 123 249.6 122.8 249 122.8 248.5 122.8 248 123 248 123.2M310.5 123.6C310.6 123.9 310.9 124.2 311.2 124.3 311.5 124.4 311.6 124.3 311.5 124 311.4 123.7 311.1 123.4 310.8 123.3 310.5 123.2 310.4 123.3 310.5 123.6M272.4 124.4C272.4 124.9 272.6 125.2 272.9 125.1 273.2 125 273.4 124.7 273.4 124.4 273.4 124.1 273.2 123.8 272.9 123.7 272.6 123.6 272.4 123.9 272.4 124.4M228.4 132.6C228.4 132.9 228.7 133.2 229 133.2 229.7 133.2 229.6 132.3 228.9 132.1 228.6 132 228.4 132.2 228.4 132.6M238 134.2C238 134.9 238.9 134.8 239.1 134.1 239.2 133.8 239 133.6 238.6 133.6 238.3 133.6 238 133.9 238 134.2M272.4 134.2C272.4 134.5 272.6 134.8 272.8 134.8 273 134.8 273.2 134.5 273.2 134.2 273.2 133.9 273 133.6 272.8 133.6 272.6 133.6 272.4 133.9 272.4 134.2M255.5 143.5C255 143.9 255.2 144.4 255.8 144.4 256.1 144.4 256.4 144.1 256.4 143.8 256.4 143.2 255.9 143 255.5 143.5M306 143.8C306 144.1 306.3 144.4 306.6 144.4 306.9 144.4 307.2 144.1 307.2 143.8 307.2 143.5 306.9 143.2 306.6 143.2 306.3 143.2 306 143.5 306 143.8M324.4 143.8C324.4 144.1 324.7 144.4 325 144.4 325.7 144.4 325.6 143.5 324.9 143.3 324.6 143.2 324.4 143.4 324.4 143.8M338.4 143.8C338.4 144.1 338.7 144.4 339 144.4 339.3 144.4 339.6 144.1 339.6 143.8 339.6 143.5 339.3 143.2 339 143.2 338.7 143.2 338.4 143.5 338.4 143.8" stroke="none" fill="#ed1f24" fill-rule="evenodd"/></svg>