<svg xmlns="http://www.w3.org/2000/svg" viewBox="0 0 1710 675"><g fill="#ED1F24" stroke="#ED1F24"><path d="M202.5 67.5H270V135h-67.5zM607.5 67.5H675V135h-67.5zM540 135h67.5v67.5H540zM270 135h67.5v67.5H270zM202.5 202.5H675V270H202.5zM135 270h135v67.5H135zM337.5 270H540v67.5H337.5zM607.5 270h135v67.5h-135zM67.5 337.5H810V405H67.5zM67.5 405H135v135H67.5z" stroke-width="1.35"/><path d="M67.5 405H135v135H67.5zM742.5 405H810v135h-67.5zM202.5 405H675v67.5H202.5zM202.5 472.5H270V540h-67.5zM607.5 472.5H675V540h-67.5zM270 540h135v67.5H270zM472.5 540h135v67.5h-135z" stroke-width="1.35"/></g><g fill="#ED1F24" stroke="#ED1F24"><path d="M870 50h150v50H870zM870 100h50v300h-50zM870 400h100v50H870zM970 250h50v200h-50zM945 200h75v50h-75zM1045 50h50v400h-50zM1095 50h50v50h-50zM1145 50h50v400h-50zM1095 200h50v50h-50zM1220 50h50v400h-50zM1270 50h50v50h-50zM1320 50h50v400h-50zM1370 100h50v50h-50zM1420 100h50v350h-50zM1495 50h50v400h-50zM1545 50h100v50h-100z"/><path d="M1535 225l86.603-50 25 43.301-86.603 50zM1545 400h100v50h-100z"/><g><path d="M995 500h75v25h-75zM995 525h25v25h-25zM995 550h75v25h-75zM1045 575h25v25h-25zM995 600h75v25h-75zM1080 500h75v25h-75zM1105 525h25v100h-25zM1165 500h25v125h-25zM1190 500h25v25h-25zM1215 500h25v125h-25zM1190 550h25v25h-25zM1250 500h75v25h-75zM1275 525h25v100h-25zM1335 500h25v125h-25zM1370 500h25v125h-25zM1395 500h25v25h-25zM1420 500h25v125h-25zM1395 600h25v25h-25zM1455 500h25v125h-25zM1480 500h25v25h-25zM1505 500h25v125h-25z"/></g></g></svg>