<svg xmlns="http://www.w3.org/2000/svg" viewBox="0 0 1710 675">
  <g fill="rgb(237,31,36)" stroke="rgb(237,31,36)" transform="scale(1.35)">
    <!-- Invader -->
    <rect x="150" y="50" width="50" height="50"/>
    <rect x="450" y="50" width="50" height="50"/>
    <rect x="400" y="100" width="50" height="50"/>
    <rect x="200" y="100" width="50" height="50"/>
    <rect x="150" y="150" width="350" height="50"/>
    <rect x="100" y="200" width="100" height="50"/>
    <rect x="250" y="200" width="150" height="50"/>
    <rect x="450" y="200" width="100" height="50"/>
    <rect x="50" y="250" width="550" height="50"/>
    <rect x="50" y="300" width="50" height="100"/>
    <rect x="50" y="300" width="50" height="100"/>
    <rect x="550" y="300" width="50" height="100"/>
    <rect x="150" y="300" width="350" height="50"/>
    <rect x="150" y="350" width="50" height="50"/>
    <rect x="450" y="350" width="50" height="50"/>
    <rect x="200" y="400" width="100" height="50"/>
    <rect x="350" y="400" width="100" height="50"/>
  </g>
  <g transform="translate(870 0)" fill="rgb(237,31,36)" stroke="rgb(237,31,36)">
    <g>
      <!-- G -->
      <rect x="0" y="50" width="150" height="50"/>
      <rect x="0" y="100" width="50" height="300"/>
      <rect x="0" y="400" width="100" height="50"/>
      <rect x="100" y="250" width="50" height="200"/>
      <rect x="75" y="200" width="75" height="50"/>
      <!-- A -->
      <rect x="175" y="50" width="50" height="400"/>
      <rect x="225" y="50" width="50" height="50"/>
      <rect x="275" y="50" width="50" height="400"/>
      <rect x="225" y="200" width="50" height="50"/>
      <!-- M -->
      <rect x="350" y="50" width="50" height="400"/>
      <rect x="400" y="50" width="50" height="50"/>
      <rect x="450" y="50" width="50" height="400"/>
      <rect x="500" y="100" width="50" height="50"/>
      <rect x="550" y="100" width="50" height="350"/>
      <!-- E -->
      <rect x="625" y="50" width="50" height="400"/>
      <rect x="675" y="50" width="100" height="50"/>
      <rect x="0" y="0" width="100" height="50" transform="translate(665 225) rotate(-30)"/>
      <rect x="675" y="400" width="100" height="50"/>
    </g>
    <g transform="translate(-50 0)">
      <!-- S -->
      <rect x="175" y="500" width="75" height="25"/>
      <rect x="175" y="525" width="25" height="25"/>
      <rect x="175" y="550" width="75" height="25"/>
      <rect x="225" y="575" width="25" height="25"/>
      <rect x="175" y="600" width="75" height="25"/>
      <!-- T -->
      <rect x="260" y="500" width="75" height="25"/>
      <rect x="285" y="525" width="25" height="100"/>
      <!-- A -->
      <rect x="345" y="500" width="25" height="125"/>
      <rect x="370" y="500" width="25" height="25"/>
      <rect x="395" y="500" width="25" height="125"/>
      <rect x="370" y="550" width="25" height="25"/>
      <!-- T -->
      <rect x="430" y="500" width="75" height="25"/>
      <rect x="455" y="525" width="25" height="100"/>
      <!-- I -->
      <rect x="515" y="500" width="25" height="125"/>
      <!-- O -->
      <rect x="550" y="500" width="25" height="125"/>
      <rect x="575" y="500" width="25" height="25"/>
      <rect x="600" y="500" width="25" height="125"/>
      <rect x="575" y="600" width="25" height="25"/>
      <!-- N -->
      <rect x="635" y="500" width="25" height="125"/>
      <rect x="660" y="500" width="25" height="25"/>
      <rect x="685" y="500" width="25" height="125"/>
    </g>
  </g>
</svg>